<?xml version="1.0" encoding="utf-8"?>
<svg viewBox="187.5984 122.3036 70 70" width="70" height="70" xmlns="http://www.w3.org/2000/svg">
  <g transform="matrix(1, 0, 0, 1, 46.0674171447754, -10.112360000610352)">
    <rect width="70" height="70" rx="14" fill="#13544E" x="141.531" y="132.416"/>
    <path d="M 171 146.561 C 171 143.518 173.475 141.052 176.529 141.052 C 179.583 141.052 182.057 143.518 182.057 146.561 C 182.057 149.604 179.583 152.07 176.529 152.07 C 173.475 152.07 171 149.604 171 146.561 Z M 161.752 156.763 C 163.873 156.763 165.591 155.051 165.591 152.938 C 165.591 150.825 163.873 149.113 161.752 149.113 C 159.632 149.113 157.913 150.825 157.913 152.938 C 157.913 155.051 159.632 156.763 161.752 156.763 Z M 169.373 166.56 L 176.533 181.565 L 183.91 166.665 C 186.557 161.318 182.651 155.056 176.667 155.056 C 170.732 155.056 166.821 161.218 169.373 166.56 Z M 167.87 167.271 C 166.429 164.247 166.639 160.751 168.43 157.922 C 168.583 157.679 168.75 157.441 168.923 157.212 C 163.021 160.226 156.209 158.461 149.546 152.938 L 172.336 176.643 L 167.87 167.271 Z M 191.31 156.763 C 193.43 156.763 195.149 155.051 195.149 152.938 C 195.149 150.825 193.43 149.113 191.31 149.113 C 189.189 149.113 187.471 150.825 187.471 152.938 C 187.471 155.051 189.189 156.763 191.31 156.763 Z M 185.192 167.271 L 180.717 176.643 L 203.506 152.938 C 196.848 158.461 190.032 160.226 184.135 157.212 C 184.307 157.441 184.474 157.674 184.628 157.922 C 186.423 160.751 186.633 164.247 185.192 167.271 Z" fill="white"/>
    <path d="M 176.529 183.177 L 146.986 153.735 L 176.529 193.78 L 206.077 153.735 L 176.529 183.177 Z" fill="#22BE0D"/>
  </g>
</svg>